# xmcd
#
# Track frame offsets: 
#        150
#        20434
#        40413
#        60364
#        77141
#        91368
#        109780
#        126953
#        146098
#        161183
#        177491
#        195506
#        210991
#        220040
#        236715
#        248243
#        265992
#        274415
#        285800
#        308481
#
# Disc length: 4342 seconds
#
# Revision: 0
# Processed by: cddbd v1.5.1PL0 Copyright (c) Steve Scherf et al.
# Submitted via: ExactAudioCopy v0.95a3
#
DISCID=1f10f414
DTITLE=Carpenter - CARPENTERS ¾­µä½ðÇúB
DYEAR=2002
DGENRE=Dream
TTITLE0=lovel jnes
TTITLE1=where do I go from here
TTITLE2=the uninvted guest
TTITLE3=if we fry
TTITLE4=when I in love
TTITLE5=kiss mi the way you did last night
TTITLE6=remember when lovin took all night
TTITLE7=you're the one
TTITLE8=honlulu city lights
TTITLE9=slow dance
TTITLE10=if I had you
TTITLE11=little girl blue
TTITLE12=dancin in the street
TTITLE13=closed to you
TTITLE14=for all we know
TTITLE15=goodgye to love
TTITLE16=all I can do
TTITLE17=white christmas
TTITLE18=when it's gons
TTITLE19=now
EXTD=
EXTT0=
EXTT1=
EXTT2=
EXTT3=
EXTT4=
EXTT5=
EXTT6=
EXTT7=
EXTT8=
EXTT9=
EXTT10=
EXTT11=
EXTT12=
EXTT13=
EXTT14=
EXTT15=
EXTT16=
EXTT17=
EXTT18=
EXTT19=
PLAYORDER=
